<?xml version="1.0" encoding="UTF-8"?>
<svg width="650px" height="650px" viewBox="0 0 650 650" version="1.1" xmlns="http://www.w3.org/2000/svg" xmlns:xlink="http://www.w3.org/1999/xlink">
    <!-- Generator: Sketch 52.5 (67469) - http://www.bohemiancoding.com/sketch -->
    <title>icon/sensor/sensor</title>
    <desc>Created with Sketch.</desc>
    <g id="icon/sensor/sensor" stroke="none" stroke-width="1" fill="none" fill-rule="evenodd">
        <path d="M486,423.9 L486,405 C486,396.2 478.8,389 470,389 C461.2,389 454,396.2 454,405 L454,423.9 C435.4,430.5 422,448.1 422,469 C422,495.5 443.5,517 470,517 C496.5,517 518,495.5 518,469 C518,448.1 504.6,430.5 486,423.9 Z M550,390.9 L550,149 C550,104.9 514.1,69 470,69 C425.9,69 390,104.9 390,149 L390,390.9 C369.7,411.7 358,439.8 358,469 C358,530.8 408.2,581 470,581 C531.8,581 582,530.8 582,469 C582,439.8 570.3,411.6 550,390.9 Z M470,549 C425.9,549 390,513.1 390,469 C390,443.5 402.2,420.1 422,405.2 L422,149 C422,122.5 443.5,101 470,101 C496.5,101 518,122.5 518,149 L518,405.2 C537.8,420 550,443.5 550,469 C550,513.1 514.1,549 470,549 Z M347.1,395 C350.5,389.4 353.9,383.9 358,378.8 L358,364.6 L292.9,325 L358,285.5 L358,248.4 L278,297 L278,203.7 L323.7,158 C326.8,154.9 326.8,149.8 323.7,146.7 L312.4,135.4 C309.3,132.3 304.2,132.3 301.1,135.4 L278.1,158.4 L278.1,109 C278.1,104.6 274.5,101 270.1,101 L254.1,101 C249.7,101 246.1,104.6 246.1,109 L246.1,158.4 L223.1,135.4 C220,132.3 214.9,132.3 211.8,135.4 L200.5,146.7 C197.4,149.8 197.4,154.9 200.5,158 L246.2,203.7 L246.2,297 L168.5,250.5 L152.4,188.1 C151.3,183.8 147.1,181.3 143,182.4 L128.1,186.5 C124,187.6 121.5,192 122.6,196.3 L130.7,227.8 L89.5,203.1 C85.8,200.9 81.1,202.2 79,206 L71,219.9 C68.9,223.7 70.1,228.6 73.8,230.8 L115,255.5 L84.8,264 C80.7,265.1 78.2,269.5 79.3,273.8 L83.3,289.3 C84.4,293.6 88.6,296.1 92.7,295 L152.9,278.3 L231.1,325.1 L152.9,371.9 L92.7,355.2 C88.6,354.1 84.4,356.6 83.3,360.9 L79.3,376.4 C78.2,380.7 80.6,385.1 84.8,386.2 L115.1,394.6 L73.9,419.1 C70.2,421.3 68.9,426.2 71.1,430 L78.8,443.9 C80.9,447.7 85.7,449 89.3,446.8 L130.5,422.1 L122.4,453.6 C121.3,457.9 123.7,462.3 127.9,463.4 L142.8,467.5 C146.9,468.6 151.1,466.1 152.2,461.8 L168.3,399.4 L246,352.9 L246,446.2 L200.3,492 C197.2,495.1 197.2,500.2 200.3,503.3 L211.6,514.6 C214.7,517.7 219.8,517.7 222.9,514.6 L245.9,491.6 L245.9,541 C245.9,545.4 249.5,549 253.9,549 L269.9,549 C274.3,549 277.9,545.4 277.9,541 L277.9,491.6 L300.9,514.6 C304,517.7 309.1,517.7 312.2,514.6 L323.5,503.3 C326.6,500.2 326.6,495.1 323.5,492 L278,446.4 L278,353.1 L347.1,395 Z" id="Shape" fill="#FFFFFF" fill-rule="nonzero"></path>
    </g>
</svg>