<?xml version="1.0" encoding="UTF-8"?>
<svg width="650px" height="650px" viewBox="0 0 650 650" version="1.1" xmlns="http://www.w3.org/2000/svg" xmlns:xlink="http://www.w3.org/1999/xlink">
    <!-- Generator: Sketch 52.5 (67469) - http://www.bohemiancoding.com/sketch -->
    <title>icon/power/lightbulb-off</title>
    <desc>Created with Sketch.</desc>
    <g id="icon/power/lightbulb-off" stroke="none" stroke-width="1" fill="none" fill-rule="evenodd">
        <path d="M323,69 C220.05,69 146.88,152.54 147,245.24 C147.06,289.52 163.5,329.91 190.56,360.78 C216.21,390.03 240.85,437.68 243,453 L243.06,528.18 C243.06,531.33 244,534.4 245.74,537.02 L270.25,573.86 C273.22,578.32 278.22,581 283.57,581 L362.42,581 C367.78,581 372.78,578.32 375.74,573.86 L400.25,537.02 C401.99,534.4 402.92,531.32 402.93,528.18 L403,453 C405.26,437.28 429.99,389.81 455.44,360.78 C482.55,329.85 499,289.37 499,245 C499,147.8 420.2,69 323,69 Z M370.94,523.31 L353.85,549 L292.14,549 L275.05,523.31 L275.04,517 L370.94,517 L370.94,523.31 Z M370.98,485 L275.01,485 L274.94,453 L371.02,453 L370.98,485 Z M431.38,339.68 C417.39,355.64 395.05,387.78 380.8,420.99 L265.21,420.99 C250.95,387.77 228.62,355.64 214.63,339.68 C191.5,313.3 179.13,279.85 179.05,245 C178.87,168.01 239.43,101 323,101 C402.4,101 467,165.6 467,245 C467,279.85 454.35,313.48 431.38,339.68 Z M323,133 C261.25,133 211,183.25 211,245 C211,253.84 218.16,261 227,261 C235.84,261 243,253.84 243,245 C243,200.89 278.88,165 323,165 C331.84,165 339,157.84 339,149 C339,140.16 331.84,133 323,133 Z" id="Shape" fill="#FFFFFF" fill-rule="nonzero"></path>
    </g>
</svg>