<?xml version="1.0" encoding="UTF-8"?>
<svg width="650px" height="650px" viewBox="0 0 650 650" version="1.1" xmlns="http://www.w3.org/2000/svg" xmlns:xlink="http://www.w3.org/1999/xlink">
    <!-- Generator: Sketch 52.5 (67469) - http://www.bohemiancoding.com/sketch -->
    <title>icon/power/lightbulb-dollar</title>
    <desc>Created with Sketch.</desc>
    <g id="icon/power/lightbulb-dollar" stroke="none" stroke-width="1" fill="none" fill-rule="evenodd">
        <path d="M350.09,252.42 L305.09,238.92 C299.93,237.37 296.32,232.14 296.32,226.19 C296.32,218.92 301.62,213 308.12,213 L336.23,213 C340.79,213 345.19,214.29 349.05,216.72 C352.29,218.75 356.41,218.63 359.18,215.99 L370.93,204.78 C374.46,201.41 374.26,195.57 370.36,192.64 C361.26,185.81 350.28,181.87 338.99,181.29 L338.99,165 C338.99,160.58 335.41,157 330.99,157 L314.99,157 C310.57,157 306.99,160.58 306.99,165 L306.99,181.12 C283.37,181.75 264.32,201.67 264.32,226.19 C264.32,246.16 277.3,264 295.9,269.58 L340.9,283.08 C346.06,284.63 349.67,289.86 349.67,295.81 C349.67,303.08 344.37,309 337.87,309 L309.76,309 C305.2,309 300.8,307.71 296.94,305.28 C293.7,303.25 289.58,303.37 286.81,306.01 L275.06,317.22 C271.53,320.59 271.73,326.43 275.63,329.36 C284.73,336.19 295.71,340.13 307,340.71 L307,357 C307,361.42 310.58,365 315,365 L331,365 C335.42,365 339,361.42 339,357 L339,340.88 C362.62,340.25 381.67,320.34 381.67,295.81 C381.67,275.84 368.69,258 350.09,252.42 Z M323,69 C220.05,69 146.88,152.54 147,245.24 C147.06,289.52 163.5,329.91 190.56,360.78 C216.21,390.03 240.85,437.68 243,453 L243.06,528.18 C243.06,531.33 244,534.4 245.74,537.02 L270.25,573.86 C273.22,578.32 278.22,581 283.57,581 L362.42,581 C367.78,581 372.78,578.32 375.74,573.86 L400.25,537.02 C401.99,534.4 402.92,531.32 402.93,528.18 L403,453 C405.26,437.28 429.99,389.81 455.44,360.78 C482.55,329.85 499,289.37 499,245 C499,147.8 420.2,69 323,69 Z M370.94,523.31 L353.85,549 L292.14,549 L275.05,523.31 L275.04,517 L370.94,517 L370.94,523.31 Z M370.98,485 L275.01,485 L274.94,453 L371.02,453 L370.98,485 Z M431.38,339.68 C417.39,355.64 395.05,387.78 380.8,420.99 L265.21,420.99 C250.95,387.77 228.62,355.64 214.63,339.68 C191.5,313.3 179.13,279.85 179.05,245 C178.87,168.01 239.43,101 323,101 C402.4,101 467,165.6 467,245 C467,279.85 454.35,313.48 431.38,339.68 Z" id="Shape" fill="#FFFFFF" fill-rule="nonzero"></path>
    </g>
</svg>