<?xml version="1.0" encoding="UTF-8"?>
<svg width="650px" height="650px" viewBox="0 0 650 650" version="1.1" xmlns="http://www.w3.org/2000/svg" xmlns:xlink="http://www.w3.org/1999/xlink">
    <!-- Generator: Sketch 52.5 (67469) - http://www.bohemiancoding.com/sketch -->
    <title>icon/power/lightbulb-on</title>
    <desc>Created with Sketch.</desc>
    <g id="icon/power/lightbulb-on" stroke="none" stroke-width="1" fill="none" fill-rule="evenodd">
        <path d="M323.000147,67 C220.050147,67 146.880147,150.54 147.000147,243.24 C147.060147,287.52 163.500147,327.91 190.560147,358.78 C216.210147,388.04 240.850147,435.69 243.000147,451 C262.165559,451 315.498893,451 403.000147,451 C405.260147,435.28 429.990147,387.81 455.440147,358.78 C482.550147,327.85 499.000147,287.37 499.000147,243 C499.000147,145.8 420.200147,67 323.000147,67 Z" id="Path" fill="#EDDB00" fill-rule="nonzero"></path>
        <path d="M44.8,401.14 C42.9613274,402.200193 41.6194556,403.947743 41.0698991,405.997795 C40.5203425,408.047848 40.808172,410.232271 41.87,412.07 L49.87,425.93 C50.9301931,427.768673 52.6777433,429.110544 54.7277954,429.660101 C56.7778476,430.209657 58.9622711,429.921828 60.8,428.86 L160.02,371.58 C153.32,363.11 147.24,354.29 142.01,345.03 L44.8,401.14 Z M115.33,243 L11,243 C6.58,243 3,246.58 3,251 L3,267 C3,271.42 6.58,275 11,275 L117.52,275 C115.89,264.48 115.35,253.77 115.33,243 Z M44.8,116.85 L129.96,166.02 C133.93,156.01 138.68,146.44 144.13,137.25 L60.8,89.14 C58.9622711,88.078172 56.7778476,87.7903425 54.7277954,88.3398991 C52.6777433,88.8894556 50.9301931,90.2313274 49.87,92.07 L41.87,105.93 C39.66,109.75 40.97,114.64 44.8,116.85 Z M601.2,116.85 C603.038673,115.789807 604.380544,114.042257 604.930101,111.992205 C605.479657,109.942152 605.191828,107.757729 604.13,105.92 L596.13,92.06 C595.069807,90.2213274 593.322257,88.8794556 591.272205,88.3298991 C589.222152,87.7803425 587.037729,88.068172 585.2,89.13 L501.82,137.27 C507.26,146.44 512.06,156 516.06,166 L601.2,116.85 Z M635,243 L531,243 C531,253.8 529.75,264.45 528.1,275 L635,275 C639.42,275 643,271.42 643,267 L643,251 C643,246.58 639.42,243 635,243 Z M601.2,401.14 L503.81,344.91 C498.56,354.21 492.36,362.94 485.68,371.39 L585.2,428.85 C589.03,431.06 593.92,429.75 596.13,425.92 L604.13,412.06 C606.34,408.24 605.03,403.35 601.2,401.14 Z M323,131 C261.25,131 211,181.25 211,243 C211,251.84 218.16,259 227,259 C235.84,259 243,251.84 243,243 C243,198.89 278.88,163 323,163 C331.84,163 339,155.84 339,147 C339,138.15 331.84,131 323,131 Z M323,67 C220.05,67 146.88,150.54 147,243.24 C147.06,287.52 163.5,327.91 190.56,358.78 C216.21,388.04 240.85,435.69 243,451 L243.06,526.18 C243.06,529.33 244,532.4 245.74,535.02 L270.25,571.86 C273.22,576.32 278.22,579 283.57,579 L362.42,579 C367.78,579 372.78,576.32 375.74,571.86 L400.25,535.02 C401.99,532.4 402.92,529.32 402.93,526.18 L403,451 C405.26,435.28 429.99,387.81 455.44,358.78 C482.55,327.85 499,287.37 499,243 C499,145.8 420.2,67 323,67 Z M370.94,521.31 L353.85,547 L292.14,547 L275.05,521.31 L275.04,515 L370.94,515 L370.94,521.31 Z M370.98,483 L275.01,483 L274.94,451 L371.02,451 L370.98,483 Z M431.38,337.68 C417.39,353.64 395.05,385.78 380.8,418.99 L265.21,418.99 C250.95,385.77 228.62,353.64 214.63,337.68 C191.5,311.3 179.13,277.84 179.05,243 C178.87,166.01 239.43,99 323,99 C402.4,99 467,163.6 467,243 C467,277.85 454.35,311.48 431.38,337.68 Z" id="Shape" fill="#FFFFFF" fill-rule="nonzero"></path>
    </g>
</svg>