<?xml version="1.0" encoding="UTF-8"?>
<svg width="650px" height="650px" viewBox="0 0 650 650" version="1.1" xmlns="http://www.w3.org/2000/svg" xmlns:xlink="http://www.w3.org/1999/xlink">
    <!-- Generator: Sketch 52.5 (67469) - http://www.bohemiancoding.com/sketch -->
    <title>icon/power/lightbulb-slash</title>
    <desc>Created with Sketch.</desc>
    <g id="icon/power/lightbulb-slash" stroke="none" stroke-width="1" fill="none" fill-rule="evenodd">
        <g id="lightbulb-slash" transform="translate(2.000000, 68.000000)"></g>
        <path d="M322,101 C401.4,101 466,165.6 466,245 C466,304.06 430.67,339.42 425.69,345.55 L450.73,365.27 C453.6,361.77 498,318.13 498,245 C498,147.8 419.2,69 322,69 C246.86,69 198.79,112.4 175.14,148.25 L200.29,168.05 C219.45,137.67 259.09,101 322,101 Z M225.97,188.28 L251.35,208.26 C264.71,182.69 291.19,165 322,165 C330.84,165 338,157.84 338,149 C338,140.16 330.84,133 322,133 C281.03,133 245.5,155.36 225.97,188.28 Z M264.2,421 C249.94,387.78 227.61,355.65 213.62,339.69 C197.37,321.15 186.65,299.07 181.55,275.52 L146.26,247.73 C146.93,291.01 163.01,330.51 189.56,360.79 C215.21,390.05 239.85,437.69 242,453.01 L242.06,528.19 C242.06,531.34 243,534.41 244.74,537.03 L269.25,573.87 C272.22,578.33 277.22,581.01 282.57,581.01 L361.42,581.01 C366.78,581.01 371.78,578.33 374.74,573.87 L399.25,537.03 C400.99,534.41 401.92,531.33 401.93,528.19 L402,453 C402.06,452.59 402.88,450.38 403.03,449.91 L366.31,421 L264.2,421 Z M369.94,523.31 L352.85,549 L291.14,549 L274.05,523.31 L274.04,517 L369.94,517 L369.94,523.31 Z M369.98,485 L274.01,485 L273.94,453 L370.02,453 L369.98,485 Z M639,554.25 L25,70.75 C23.3439149,69.4247592 21.2290912,68.8119092 19.1210305,69.0463465 C17.0129698,69.2807839 15.0844627,70.3432926 13.76,72 L3.76,84.51 C2.43475924,86.1660851 1.82190919,88.2809088 2.05634654,90.3889695 C2.2907839,92.4970302 3.35329263,94.4255373 5.01,95.75 L619.01,579.24 C620.666085,580.565241 622.780909,581.178091 624.888969,580.943653 C626.99703,580.709216 628.925537,579.646707 630.25,577.99 L640.25,565.48 C643.01,562.04 642.45,557.01 639,554.25 Z" id="Shape" fill="#FFFFFF" fill-rule="nonzero"></path>
    </g>
</svg>